<svg xmlns="http://www.w3.org/2000/svg"
     viewBox="0 0 100 100"
     role="img"
     aria-label="Improvised Weapon Icon">

  <!-- Dark background -->
  <rect width="100" height="100" fill="#0B0F14"/>

  <!-- Bottle (rotated 45°) -->
  <path
    fill="#FFFFFF"
    d="
      M 46 10
      L 54 10
      L 54 24
      L 60 30
      L 60 78
      A 4 4 0 0 1 56 82
      L 44 82
      A 4 4 0 0 1 40 78
      L 40 30
      L 46 24
      Z
    "
    transform="rotate(45 50 50)"
  />

  <!-- Crowbar: length + placement corrected so minY and maxY match bottle exactly -->
  <path
    fill="#FFFFFF"
    d="
      M 48 -0.84
      L 52 -0.84
      L 52 70
      C 52 74, 56 76, 60 74
      L 66 70
      L 68 74
      L 60 80
      C 54 84, 48 82, 48 76
      Z
    "
    transform="translate(0 -9.32) rotate(135 50 50)"
  />

</svg>
